<svg width="68" height="66" viewBox="0 0 68 66" fill="none" xmlns="http://www.w3.org/2000/svg">
<path fill-rule="evenodd" clip-rule="evenodd" d="M21.1508 2.9315C24.4743 2.783 25.534 2.75 34 2.75C42.466 2.75 43.5256 2.78575 46.8463 2.9315C50.167 3.07725 52.4336 3.5915 54.417 4.33675C56.4938 5.0985 58.378 6.28925 59.9363 7.82925C61.523 9.339 62.747 11.165 63.529 13.1835C64.2996 15.1085 64.8266 17.3085 64.9796 20.526C65.1326 23.7572 65.1666 24.7857 65.1666 33C65.1666 41.217 65.1298 42.2455 64.9796 45.4712C64.8295 48.6888 64.2996 50.8887 63.529 52.8138C62.747 54.8325 61.5209 56.6615 59.9363 58.1735C58.378 59.7135 56.4938 60.9015 54.417 61.6605C52.4336 62.4085 50.167 62.92 46.852 63.0685C43.5256 63.217 42.466 63.25 34 63.25C25.534 63.25 24.4743 63.2142 21.1508 63.0685C17.8358 62.9227 15.5691 62.4085 13.5858 61.6605C11.5059 60.9014 9.62147 59.7114 8.06365 58.1735C6.47806 56.6628 5.25104 54.8347 4.46815 52.8165C3.70031 50.8915 3.17331 48.6915 3.02031 45.474C2.86731 42.2427 2.83331 41.2142 2.83331 33C2.83331 24.783 2.87015 23.7545 3.02031 20.5315C3.17048 17.3085 3.70031 15.1085 4.46815 13.1835C5.25219 11.1652 6.48015 9.33711 8.06648 7.8265C9.62209 6.28788 11.5047 5.09697 13.583 4.33675C15.5663 3.5915 17.833 3.08 21.148 2.9315H21.1508ZM46.5941 8.3765C43.3075 8.23075 42.3215 8.2005 34 8.2005C25.6785 8.2005 24.6925 8.23075 21.4058 8.3765C18.3656 8.51125 16.7166 9.0035 15.6173 9.41875C14.1638 9.96875 13.124 10.6205 12.0331 11.6793C10.9991 12.6556 10.2033 13.8443 9.70415 15.158C9.27631 16.225 8.76915 17.8255 8.63031 20.7762C8.48015 23.9662 8.44898 24.9233 8.44898 33C8.44898 41.0768 8.48015 42.0337 8.63031 45.2237C8.76915 48.1745 9.27631 49.775 9.70415 50.842C10.2028 52.1538 10.999 53.3445 12.0331 54.3208C13.039 55.3245 14.2658 56.0973 15.6173 56.5813C16.7166 56.9965 18.3656 57.4888 21.4058 57.6235C24.6925 57.7693 25.6756 57.7995 34 57.7995C42.3243 57.7995 43.3075 57.7693 46.5941 57.6235C49.6343 57.4888 51.2833 56.9965 52.3826 56.5813C53.8361 56.0313 54.876 55.3795 55.9668 54.3208C57.001 53.3445 57.7971 52.1538 58.2958 50.842C58.7236 49.775 59.2308 48.1745 59.3696 45.2237C59.5198 42.0337 59.551 41.0768 59.551 33C59.551 24.9233 59.5198 23.9662 59.3696 20.7762C59.2308 17.8255 58.7236 16.225 58.2958 15.158C57.7291 13.7473 57.0576 12.738 55.9668 11.6793C54.9608 10.6757 53.7361 9.90333 52.3826 9.41875C51.2833 9.0035 49.6343 8.51125 46.5941 8.3765ZM30.0191 42.3252C32.2423 43.2235 34.7179 43.3447 37.0229 42.6682C39.328 41.9918 41.3196 40.5595 42.6575 38.6162C43.9955 36.6728 44.5968 34.3389 44.3588 32.013C44.1208 29.6872 43.0582 27.5137 41.3525 25.8637C40.2652 24.8091 38.9504 24.0015 37.5029 23.4992C36.0554 22.9968 34.5112 22.8122 32.9814 22.9587C31.4516 23.1051 29.9742 23.579 28.6558 24.3461C27.3373 25.1132 26.2104 26.1545 25.3563 27.3951C24.5023 28.6356 23.9422 30.0445 23.7164 31.5204C23.4907 32.9962 23.6049 34.5023 24.0508 35.9302C24.4968 37.358 25.2633 38.6722 26.2954 39.778C27.3274 40.8838 28.5991 41.7538 30.0191 42.3252Z" fill="#3D230B"/>
<path fill-rule="evenodd" clip-rule="evenodd" d="M22.6724 22.0056C24.1599 20.5617 25.9259 19.4164 27.8695 18.6351C29.8131 17.8537 31.8963 17.4515 34 17.4515C36.1038 17.4515 38.1869 17.8537 40.1305 18.6351C42.0741 19.4164 43.8401 20.5617 45.3277 22.0056C46.8153 23.4494 47.9953 25.1634 48.8003 27.0499C49.6054 28.9363 50.0198 30.9582 50.0198 33.0001C50.0198 35.0419 49.6054 37.0638 48.8003 38.9502C47.9953 40.8367 46.8153 42.5507 45.3277 43.9946C42.3234 46.9105 38.2487 48.5486 34 48.5486C29.7513 48.5486 25.6766 46.9105 22.6724 43.9946C19.6681 41.0786 17.9803 37.1238 17.9803 33.0001C17.9803 28.8763 19.6681 24.9215 22.6724 22.0056ZM53.5727 19.7671C53.9413 19.4295 54.2364 19.0237 54.4406 18.5735C54.6447 18.1233 54.7537 17.6379 54.761 17.1461C54.7684 16.6543 54.6741 16.1661 54.4836 15.7103C54.293 15.2545 54.0103 14.8405 53.6519 14.4927C53.2936 14.1449 52.867 13.8704 52.3974 13.6855C51.9278 13.5006 51.4248 13.409 50.9181 13.4162C50.4113 13.4233 49.9113 13.5291 49.4474 13.7272C48.9836 13.9253 48.5654 14.2118 48.2177 14.5696C47.5414 15.2654 47.1711 16.1896 47.1855 17.1461C47.1999 18.1026 47.5977 19.016 48.2946 19.6924C48.9915 20.3688 49.9326 20.7549 50.9181 20.7689C51.9035 20.7828 52.8558 20.4235 53.5727 19.7671Z" fill="#3D230B"/>
</svg>
