<svg width="25" height="26" viewBox="0 0 25 26" fill="none" xmlns="http://www.w3.org/2000/svg">
<path d="M1.37348 25.527C1.18368 25.5267 0.996021 25.4859 0.822442 25.4073C0.648862 25.3286 0.493159 25.2139 0.365232 25.0703C0.234993 24.9279 0.135611 24.7589 0.0736044 24.5744C0.0115981 24.39 -0.0116321 24.1941 0.00543675 23.9998L0.340607 20.2253L15.8241 4.37323L20.6629 9.32752L5.18348 25.1781L1.49797 25.5214C1.45659 25.5253 1.41504 25.5272 1.37348 25.527ZM21.6287 8.33694L16.7913 3.38265L19.693 0.410924C19.82 0.280655 19.9709 0.177311 20.137 0.106801C20.303 0.0362922 20.4811 0 20.6608 0C20.8406 0 21.0186 0.0362922 21.1847 0.106801C21.3508 0.177311 21.5017 0.280655 21.6287 0.410924L24.5304 3.38265C24.6576 3.51278 24.7585 3.6673 24.8273 3.83739C24.8962 4.00749 24.9316 4.18981 24.9316 4.37393C24.9316 4.55806 24.8962 4.74038 24.8273 4.91047C24.7585 5.08056 24.6576 5.23508 24.5304 5.36521L21.6301 8.33554L21.6287 8.33694Z" fill="#3D230B"/>
</svg>
