<svg width="64" height="62" viewBox="0 0 64 62" fill="none" xmlns="http://www.w3.org/2000/svg">
<path fill-rule="evenodd" clip-rule="evenodd" d="M19.1508 0.9315C22.4743 0.783 23.534 0.75 32 0.75C40.466 0.75 41.5256 0.78575 44.8463 0.9315C48.167 1.07725 50.4336 1.5915 52.417 2.33675C54.4938 3.0985 56.378 4.28925 57.9363 5.82925C59.523 7.339 60.747 9.165 61.529 11.1835C62.2996 13.1085 62.8266 15.3085 62.9796 18.526C63.1326 21.7573 63.1666 22.7858 63.1666 31C63.1666 39.217 63.1298 40.2455 62.9796 43.4712C62.8295 46.6887 62.2996 48.8887 61.529 50.8137C60.747 52.8325 59.5209 54.6615 57.9363 56.1735C56.378 57.7135 54.4938 58.9015 52.417 59.6605C50.4336 60.4085 48.167 60.92 44.852 61.0685C41.5256 61.217 40.466 61.25 32 61.25C23.534 61.25 22.4743 61.2143 19.1508 61.0685C15.8358 60.9228 13.5691 60.4085 11.5858 59.6605C9.50592 58.9014 7.62147 57.7115 6.06365 56.1735C4.47806 54.6628 3.25104 52.8347 2.46815 50.8165C1.70031 48.8915 1.17331 46.6915 1.02031 43.474C0.867313 40.2427 0.833313 39.2142 0.833313 31C0.833313 22.783 0.870146 21.7545 1.02031 18.5315C1.17048 15.3085 1.70031 13.1085 2.46815 11.1835C3.25219 9.16522 4.48015 7.33711 6.06648 5.8265C7.62209 4.28788 9.50465 3.09697 11.583 2.33675C13.5663 1.5915 15.833 1.08 19.148 0.9315H19.1508ZM44.5941 6.3765C41.3075 6.23075 40.3215 6.2005 32 6.2005C23.6785 6.2005 22.6925 6.23075 19.4058 6.3765C16.3656 6.51125 14.7166 7.0035 13.6173 7.41875C12.1638 7.96875 11.124 8.6205 10.0331 9.67925C8.99911 10.6556 8.20332 11.8443 7.70415 13.158C7.27631 14.225 6.76915 15.8255 6.63031 18.7762C6.48015 21.9662 6.44898 22.9232 6.44898 31C6.44898 39.0768 6.48015 40.0337 6.63031 43.2237C6.76915 46.1745 7.27631 47.775 7.70415 48.842C8.20281 50.1538 8.99898 51.3445 10.0331 52.3208C11.039 53.3245 12.2658 54.0973 13.6173 54.5813C14.7166 54.9965 16.3656 55.4888 19.4058 55.6235C22.6925 55.7693 23.6756 55.7995 32 55.7995C40.3243 55.7995 41.3075 55.7693 44.5941 55.6235C47.6343 55.4888 49.2833 54.9965 50.3826 54.5813C51.8361 54.0313 52.876 53.3795 53.9668 52.3208C55.001 51.3445 55.7971 50.1538 56.2958 48.842C56.7236 47.775 57.2308 46.1745 57.3696 43.2237C57.5198 40.0337 57.551 39.0768 57.551 31C57.551 22.9232 57.5198 21.9662 57.3696 18.7762C57.2308 15.8255 56.7236 14.225 56.2958 13.158C55.7291 11.7473 55.0576 10.738 53.9668 9.67925C52.9608 8.6757 51.7361 7.90333 50.3826 7.41875C49.2833 7.0035 47.6343 6.51125 44.5941 6.3765V6.3765ZM28.0191 40.3252C30.2423 41.2235 32.7179 41.3447 35.0229 40.6682C37.328 39.9918 39.3196 38.5595 40.6575 36.6162C41.9955 34.6728 42.5968 32.3389 42.3588 30.013C42.1208 27.6872 41.0582 25.5137 39.3525 23.8637C38.2652 22.8091 36.9504 22.0015 35.5029 21.4992C34.0554 20.9968 32.5112 20.8122 30.9814 20.9587C29.4516 21.1051 27.9742 21.579 26.6558 22.3461C25.3373 23.1132 24.2104 24.1545 23.3563 25.3951C22.5023 26.6356 21.9422 28.0445 21.7164 29.5204C21.4907 30.9962 21.6049 32.5023 22.0508 33.9302C22.4968 35.358 23.2633 36.6722 24.2954 37.778C25.3274 38.8838 26.5991 39.7538 28.0191 40.3252Z" fill="#D27C2C"/>
</svg>
