<svg width="68" height="66" viewBox="0 0 68 66" fill="none" xmlns="http://www.w3.org/2000/svg">
<path d="M66.9885 13.5767C64.6227 14.5942 62.0812 15.2817 59.4093 15.5925C62.1662 13.9914 64.2287 11.4715 65.212 8.50297C62.6219 9.99619 59.7871 11.0473 56.831 11.6105C54.8431 9.55035 52.21 8.18486 49.3406 7.72602C46.4712 7.26718 43.5259 7.74064 40.9622 9.07291C38.3984 10.4052 36.3595 12.5217 35.1621 15.0939C33.9647 17.6661 33.6757 20.55 34.34 23.298C29.0918 23.0422 23.9576 21.7182 19.2707 19.412C14.5838 17.1057 10.4489 13.8687 7.13433 9.91097C6.001 11.8085 5.34933 14.0085 5.34933 16.3515C5.34807 18.4607 5.88322 20.5376 6.90732 22.398C7.93142 24.2583 9.41279 25.8446 11.22 27.016C9.12411 26.9512 7.07447 26.4016 5.24166 25.4127V25.5777C5.24145 28.536 6.29576 31.4033 8.22568 33.693C10.1556 35.9827 12.8423 37.5538 15.8298 38.1397C13.8856 38.6504 11.8471 38.7257 9.8685 38.3597C10.7114 40.9052 12.3533 43.131 14.5644 44.7258C16.7754 46.3205 19.4449 47.2042 22.1992 47.2532C17.5237 50.8156 11.7495 52.748 5.8055 52.7395C4.75258 52.7397 3.70055 52.6801 2.65483 52.5607C8.68835 56.3259 15.7118 58.3242 22.8848 58.3165C47.1665 58.3165 60.4407 38.797 60.4407 21.868C60.4407 21.318 60.4265 20.7625 60.401 20.2125C62.983 18.4001 65.2117 16.1559 66.9828 13.585L66.9885 13.5767Z" fill="#3D230B"/>
</svg>
