<svg width="50" height="40" viewBox="0 0 50 40" fill="none" xmlns="http://www.w3.org/2000/svg">
<path d="M47.9927 3.6H37.7117V0.4C37.7117 0.18 37.4914 0 37.2221 0H33.7951C33.5258 0 33.3055 0.18 33.3055 0.4V3.6H17.6393V0.4C17.6393 0.18 17.419 0 17.1497 0H13.7227C13.4535 0 13.2332 0.18 13.2332 0.4V3.6H2.95218C1.869 3.6 0.993896 4.315 0.993896 5.2V38.4C0.993896 39.285 1.869 40 2.95218 40H47.9927C49.0758 40 49.9509 39.285 49.9509 38.4V5.2C49.9509 4.315 49.0758 3.6 47.9927 3.6ZM45.5448 36.4H5.40003V17.4H45.5448V36.4ZM5.40003 14V7.2H13.2332V9.6C13.2332 9.82 13.4535 10 13.7227 10H17.1497C17.419 10 17.6393 9.82 17.6393 9.6V7.2H33.3055V9.6C33.3055 9.82 33.5258 10 33.7951 10H37.2221C37.4914 10 37.7117 9.82 37.7117 9.6V7.2H45.5448V14H5.40003Z" fill="#3D230B"/>
</svg>
