<svg width="62" height="64" viewBox="0 0 62 64" fill="none" xmlns="http://www.w3.org/2000/svg">
<path d="M3.875 43.7932H58.125V47.7232H3.875V43.7932ZM3.875 51.6533H58.125V55.5833H3.875V51.6533ZM46.5 20.2131C45.7336 20.2131 44.9844 20.4435 44.3472 20.8754C43.7099 21.3072 43.2133 21.921 42.92 22.6391C42.6267 23.3572 42.5499 24.1474 42.6995 24.9098C42.849 25.6721 43.218 26.3724 43.76 26.922C44.3019 27.4716 44.9923 27.8459 45.744 27.9976C46.4957 28.1492 47.2748 28.0714 47.9829 27.7739C48.691 27.4765 49.2962 26.9728 49.7219 26.3265C50.1477 25.6802 50.375 24.9204 50.375 24.1431C50.375 23.1008 49.9667 22.1012 49.24 21.3641C48.5133 20.6271 47.5277 20.2131 46.5 20.2131ZM31 32.0031C29.4672 32.0031 27.9688 31.5421 26.6943 30.6785C25.4199 29.8148 24.4265 28.5872 23.8399 27.151C23.2534 25.7148 23.0999 24.1344 23.3989 22.6097C23.6979 21.085 24.4361 19.6844 25.5199 18.5852C26.6038 17.4859 27.9847 16.7373 29.4881 16.4341C30.9914 16.1308 32.5497 16.2864 33.9658 16.8813C35.3819 17.4762 36.5923 18.4837 37.4439 19.7763C38.2955 21.0688 38.75 22.5885 38.75 24.1431C38.7474 26.2269 37.9301 28.2246 36.4772 29.6981C35.0244 31.1716 33.0546 32.0005 31 32.0031ZM31 20.2131C30.2336 20.2131 29.4844 20.4435 28.8472 20.8754C28.2099 21.3072 27.7133 21.921 27.42 22.6391C27.1267 23.3572 27.0499 24.1474 27.1995 24.9098C27.349 25.6721 27.718 26.3724 28.26 26.922C28.8019 27.4716 29.4923 27.8459 30.244 27.9976C30.9957 28.1492 31.7748 28.0714 32.4829 27.7739C33.191 27.4765 33.7962 26.9728 34.2219 26.3265C34.6477 25.6802 34.875 24.9204 34.875 24.1431C34.874 23.1011 34.4654 22.1021 33.7389 21.3653C33.0124 20.6285 32.0274 20.2141 31 20.2131ZM15.5 20.2131C14.7336 20.2131 13.9844 20.4435 13.3472 20.8754C12.7099 21.3072 12.2133 21.921 11.92 22.6391C11.6267 23.3572 11.5499 24.1474 11.6995 24.9098C11.849 25.6721 12.218 26.3724 12.76 26.922C13.3019 27.4716 13.9923 27.8459 14.744 27.9976C15.4957 28.1492 16.2748 28.0714 16.9829 27.7739C17.691 27.4765 18.2962 26.9728 18.7219 26.3265C19.1477 25.6802 19.375 24.9204 19.375 24.1431C19.375 23.1008 18.9667 22.1012 18.24 21.3641C17.5133 20.6271 16.5277 20.2131 15.5 20.2131Z" fill="#3D230B"/>
<path d="M54.25 39.8632H7.75C6.72307 39.8606 5.73894 39.4457 5.01279 38.7092C4.28664 37.9728 3.87756 36.9747 3.875 35.9332V12.353C3.87756 11.3115 4.28664 10.3134 5.01279 9.57692C5.73894 8.84046 6.72307 8.42557 7.75 8.42297H54.25C55.2769 8.42557 56.2611 8.84046 56.9872 9.57692C57.7134 10.3134 58.1224 11.3115 58.125 12.353V35.9332C58.1235 36.975 57.7147 37.9737 56.9883 38.7104C56.262 39.4471 55.2772 39.8616 54.25 39.8632ZM54.25 12.353H7.75V35.9332H54.25V12.353Z" fill="#3D230B"/>
</svg>
