<svg width="70" height="47" viewBox="0 0 70 47" fill="none" xmlns="http://www.w3.org/2000/svg">
<path d="M67.6894 2.90077C63.4789 1.24031 59.2652 0.608582 55.0537 0.608582C41.6842 0.607561 28.3158 6.97079 14.9463 6.97079C11.5934 6.97079 8.24259 6.57073 4.88964 5.57058C4.51299 5.45832 4.13525 5.40525 3.7662 5.40525C1.89814 5.40525 0.265625 6.76464 0.265625 8.65167V41.0302C0.265625 42.3191 1.0504 43.5408 2.31061 44.0368C6.52107 45.6982 10.7348 46.33 14.9463 46.33C28.3158 46.33 41.6853 39.9667 55.0548 39.9667C58.4077 39.9667 61.7585 40.3668 65.1114 41.367C65.4881 41.4792 65.8658 41.5323 66.2349 41.5323C68.1029 41.5323 69.7355 40.1729 69.7355 38.2859V5.90839C69.7344 4.61839 68.9496 3.39779 67.6894 2.90077ZM5.47578 10.8367C7.6597 11.3511 9.93915 11.6093 12.2837 11.7481C11.6455 14.7475 8.84067 17.0081 5.47578 17.0081V10.8367ZM5.47578 39.9229V35.0466C9.20647 35.0466 12.2251 37.8297 12.3912 41.3129C9.94566 41.1281 7.6597 40.6689 5.47578 39.9229ZM35 33.2667C30.2034 33.2667 26.3164 28.8793 26.3164 23.4693C26.3164 18.0582 30.2045 13.6718 35 13.6718C39.7955 13.6718 43.6836 18.0582 43.6836 23.4693C43.6836 28.8813 39.7944 33.2667 35 33.2667ZM64.5242 36.1019C62.6225 35.6538 60.6481 35.4028 58.6281 35.2405C59.2652 32.5789 61.613 30.5581 64.5242 30.2111V36.1019ZM64.5242 12.0053C61.1713 11.6062 58.5694 8.97417 58.4663 5.72366C60.5873 5.94513 62.6008 6.35948 64.5242 7.0157V12.0053Z" fill="#3D230B"/>
</svg>
