<svg width="68" height="46" viewBox="0 0 68 46" fill="none" xmlns="http://www.w3.org/2000/svg">
<path d="M66.5833 7.89421C66.1983 6.5611 65.4483 5.35417 64.413 4.40171C63.3485 3.41997 62.0438 2.71771 60.622 2.36121C55.301 0.999965 33.983 0.999965 33.983 0.999965C25.0958 0.901825 16.2107 1.33347 7.37801 2.29246C5.95621 2.6753 4.65394 3.39325 3.58701 4.38247C2.53868 5.36147 1.77934 6.56872 1.38268 7.89147C0.429806 12.8738 -0.0331634 17.9327 9.18379e-06 23C-0.0339908 28.0627 0.427842 33.12 1.38268 38.1085C1.77084 39.4257 2.52734 40.6275 3.57851 41.5982C4.62968 42.569 5.93868 43.2702 7.37801 43.6415C12.7698 45 33.983 45 33.983 45C42.8816 45.0982 51.7779 44.6666 60.622 43.7075C62.0438 43.351 63.3485 42.6487 64.413 41.667C65.4479 40.7147 66.1971 39.5076 66.5805 38.1745C67.5583 33.1941 68.0337 28.1331 68 23.0632C68.0735 17.9719 67.5987 12.887 66.5833 7.89147V7.89421Z" fill="#3D230B"/>
<path d="M27.2057 32.4159V13.5867L44.9424 23.0027L27.2057 32.4159Z" fill="#F8EFEF"/>
</svg>
