<svg width="55" height="48" viewBox="0 0 55 48" fill="none" xmlns="http://www.w3.org/2000/svg">
<path d="M25.8887 7.125H29.1113C29.3978 7.125 29.541 7.25 29.541 7.5V40.5C29.541 40.75 29.3978 40.875 29.1113 40.875H25.8887C25.6022 40.875 25.459 40.75 25.459 40.5V7.5C25.459 7.25 25.6022 7.125 25.8887 7.125Z" fill="#3D230B"/>
<path d="M9.45312 22.2188H45.5469C45.8333 22.2188 45.9766 22.3437 45.9766 22.5938V25.4062C45.9766 25.6562 45.8333 25.7812 45.5469 25.7812H9.45312C9.16667 25.7812 9.02344 25.6562 9.02344 25.4062V22.5938C9.02344 22.3437 9.16667 22.2188 9.45312 22.2188Z" fill="#3D230B"/>
</svg>
