<svg width="56" height="48" viewBox="0 0 56 48" fill="none" xmlns="http://www.w3.org/2000/svg">
<path d="M42.7 18.0001H29.4V23.2501C29.4 26.9719 26.5738 30.0001 23.1 30.0001C19.6263 30.0001 16.8 26.9719 16.8 23.2501V11.8501L11.1213 15.5063C9.43254 16.5844 8.40004 18.5438 8.40004 20.6438V25.0782L1.40004 29.4094C0.0612926 30.2344 -0.402457 32.0719 0.376293 33.5063L7.37629 46.5001C8.14629 47.9344 9.86129 48.4219 11.2 47.5969L20.2475 42.0001H32.2C35.2888 42.0001 37.8 39.3094 37.8 36.0001H39.2C40.7488 36.0001 42 34.6594 42 33.0001V27.0001H42.7C43.8638 27.0001 44.8 25.9969 44.8 24.7501V20.2501C44.8 19.0032 43.8638 18.0001 42.7 18.0001ZM55.6238 14.4938L48.6238 1.50006C47.8538 0.0656874 46.1388 -0.421813 44.8 0.403187L35.7525 6.00006H26.81C25.76 6.00006 24.7363 6.31881 23.8438 6.90944L20.9125 8.86881C20.09 9.41256 19.6 10.3782 19.6 11.4094V23.2501C19.6 25.3219 21.1663 27.0001 23.1 27.0001C25.0338 27.0001 26.6 25.3219 26.6 23.2501V15.0001H42.7C45.4038 15.0001 47.6 17.3532 47.6 20.2501V22.9219L54.6 18.5907C55.9388 17.7563 56.3938 15.9282 55.6238 14.4938V14.4938Z" fill="#3D230B"/>
</svg>
