<svg width="65" height="52" viewBox="0 0 65 52" fill="none" xmlns="http://www.w3.org/2000/svg">
<path d="M64.9885 6.57672C62.6227 7.59422 60.0812 8.28172 57.4093 8.59247C60.1662 6.9914 62.2287 4.4715 63.212 1.50297C60.6219 2.99619 57.7871 4.04725 54.831 4.61047C52.8431 2.55035 50.21 1.18486 47.3406 0.726021C44.4712 0.267178 41.5259 0.740644 38.9622 2.07291C36.3984 3.40518 34.3595 5.52171 33.1621 8.0939C31.9647 10.6661 31.6757 13.55 32.34 16.298C27.0918 16.0422 21.9576 14.7182 17.2707 12.412C12.5838 10.1057 8.44888 6.86866 5.13433 2.91097C4.001 4.80847 3.34933 7.00847 3.34933 9.35147C3.34807 11.4607 3.88322 13.5376 4.90732 15.398C5.93142 17.2583 7.41279 18.8446 9.22 20.016C7.12411 19.9512 5.07447 19.4016 3.24166 18.4127V18.5777C3.24145 21.536 4.29576 24.4033 6.22568 26.693C8.15561 28.9827 10.8423 30.5538 13.8298 31.1397C11.8856 31.6504 9.84712 31.7257 7.8685 31.3597C8.71141 33.9052 10.3533 36.131 12.5644 37.7258C14.7754 39.3205 17.4449 40.2042 20.1992 40.2532C15.5237 43.8156 9.74951 45.748 3.8055 45.7395C2.75258 45.7397 1.70055 45.6801 0.654831 45.5607C6.68835 49.3259 13.7118 51.3242 20.8848 51.3165C45.1665 51.3165 58.4407 31.797 58.4407 14.868C58.4407 14.318 58.4265 13.7625 58.401 13.2125C60.983 11.4001 63.2117 9.15593 64.9828 6.58497L64.9885 6.57672V6.57672Z" fill="#D27C2C"/>
</svg>
