<svg width="65" height="42" viewBox="0 0 65 42" fill="none" xmlns="http://www.w3.org/2000/svg">
<path d="M61.843 0.790039H2.29424C1.0274 0.790039 0.00390625 1.61908 0.00390625 2.64523V11.9212H64.1334V2.64523C64.1334 1.61908 63.1099 0.790039 61.843 0.790039ZM0.00390625 39.7491C0.00390625 40.7753 1.0274 41.6043 2.29424 41.6043H61.843C63.1099 41.6043 64.1334 40.7753 64.1334 39.7491V17.023H0.00390625V39.7491ZM41.4447 29.0818C41.4447 28.8267 41.7024 28.618 42.0173 28.618H53.8269C54.1418 28.618 54.3994 28.8267 54.3994 29.0818V33.2559C54.3994 33.511 54.1418 33.7197 53.8269 33.7197H42.0173C41.7024 33.7197 41.4447 33.511 41.4447 33.2559V29.0818Z" fill="#3D230B"/>
</svg>
