<svg width="74" height="45" viewBox="0 0 74 45" fill="none" xmlns="http://www.w3.org/2000/svg">
<path d="M5.21739 1.64234C5.21739 1.22112 4.94255 0.817149 4.45332 0.519301C3.9641 0.221452 3.30056 0.0541229 2.6087 0.0541229C1.91683 0.0541229 1.2533 0.221452 0.76407 0.519301C0.274844 0.817149 0 1.22112 0 1.64234V7.9952C0 9.25886 0.824532 10.4708 2.29221 11.3643C3.75988 12.2579 5.75048 12.7598 7.82609 12.7598H9.02609L26.1287 33.3272C26.7313 34.0525 27.7676 34.6095 29.0243 34.8837V34.8964C28.8174 35.9283 28.7059 36.9666 28.6904 38.0061C28.6904 39.372 29.1913 40.8999 30.3183 42.145C31.4348 43.3838 33.4383 44.5845 36.433 44.6036H36.5165C39.5113 44.5845 41.5148 43.3838 42.6313 42.145C43.7583 40.8999 44.2591 39.372 44.2591 38.0061C44.2436 36.9655 44.1322 35.9262 43.9252 34.8932V34.8805C45.1743 34.6058 46.2043 34.0514 46.8052 33.3304L63.9183 12.7598H65.2174C67.293 12.7598 69.2836 12.2579 70.7513 11.3643C72.2189 10.4708 73.0435 9.25886 73.0435 7.9952V1.64234C73.0435 1.22112 72.7686 0.817149 72.2794 0.519301C71.7902 0.221452 71.1266 0.0541229 70.4348 0.0541229C69.7429 0.0541229 69.0794 0.221452 68.5902 0.519301C68.1009 0.817149 67.8261 1.22112 67.8261 1.64234V7.9952C67.8261 8.41642 67.5512 8.82039 67.062 9.11824C66.5728 9.41609 65.9093 9.58342 65.2174 9.58342H7.82609C7.13422 9.58342 6.47069 9.41609 5.98146 9.11824C5.49224 8.82039 5.21739 8.41642 5.21739 7.9952V1.64234ZM38.7078 35.0711C38.9123 36.0447 39.0238 37.0247 39.0417 38.0061C39.0417 38.959 38.6765 39.9342 38.0609 40.6171C37.4713 41.2683 36.9078 41.4208 36.4748 41.4271C36.0417 41.4208 35.4835 41.2683 34.8887 40.6171C34.2249 39.8068 33.8886 38.9116 33.9078 38.0061C33.9078 37.158 34.033 36.1511 34.2052 35.268L34.2417 35.0711H38.7078ZM58.0696 12.7598L42.1513 31.8947H30.7826L14.8748 12.7598H58.0748H58.0696Z" fill="#3D230B"/>
</svg>
