<svg width="51" height="57" viewBox="0 0 51 57" fill="none" xmlns="http://www.w3.org/2000/svg">
<path d="M24.3713 32.6006C24.9047 32.0091 25.8233 32.0091 26.3566 32.6006L33.9621 41.0353C35.3647 42.5908 37.2315 43.4452 39.2069 43.4452H40.6984L31.1076 54.0817C28.1148 57.3132 23.2552 57.3132 20.2624 54.0817L10.6321 43.4123H11.5507C13.5261 43.4123 15.3929 42.5579 16.7955 41.0024L24.3713 32.6006ZM26.3566 24.5383C25.7245 25.1408 24.9146 25.1517 24.3713 24.5383L16.7955 16.1365C15.3929 14.4824 13.5261 13.7265 11.5507 13.7265H10.6321L20.2525 3.05281C23.2552 -0.271346 28.1148 -0.271346 31.1076 3.05281L40.7083 13.6937H39.2069C37.2315 13.6937 35.3647 14.5481 33.9621 16.1036L26.3566 24.5383ZM11.5507 16.1912C12.9137 16.1912 14.1681 16.8047 15.2151 17.8782L22.791 26.28C23.5021 26.9701 24.4306 27.4631 25.3689 27.4631C26.2974 27.4631 27.2258 26.9701 27.937 26.28L35.5425 17.8453C36.5104 16.7828 37.8439 16.1693 39.2069 16.1693H42.9306L48.6891 22.5556C51.6819 25.8747 51.6819 31.2642 48.6891 34.5833L42.9306 40.9696H39.2069C37.8439 40.9696 36.5104 40.3561 35.5425 39.2826L27.937 30.8479C26.5641 29.3253 24.1639 29.3253 22.791 30.8589L15.2151 39.2498C14.1681 40.3233 12.9137 40.9367 11.5507 40.9367H8.40773L2.67696 34.5833C-0.320381 31.2642 -0.320381 25.8747 2.67696 22.5556L8.40773 16.1912H11.5507Z" fill="#3D230B"/>
</svg>
